<?xml version="1.0" encoding="UTF-8" standalone="no" ?>
<!DOCTYPE svg PUBLIC "-//W3C//DTD SVG 1.1//EN" "http://www.w3.org/Graphics/SVG/1.1/DTD/svg11.dtd">
<svg xmlns="http://www.w3.org/2000/svg" xmlns:xlink="http://www.w3.org/1999/xlink" version="1.1" width="1080" height="1080" viewBox="0 0 1080 1080" xml:space="preserve">
<desc>Created with Fabric.js 5.2.4</desc>
<defs>
</defs>
<g transform="matrix(1 0 0 1 540 540)" id="330b8f0e-bc3c-45e1-82a3-6290b484e599"  >
<rect style="stroke: none; stroke-width: 1; stroke-dasharray: none; stroke-linecap: butt; stroke-dashoffset: 0; stroke-linejoin: miter; stroke-miterlimit: 4; fill: rgb(255,255,255); fill-rule: nonzero; opacity: 1; visibility: hidden;" vector-effect="non-scaling-stroke"  x="-540" y="-540" rx="0" ry="0" width="1080" height="1080" />
</g>
<g transform="matrix(1 0 0 1 540 540)" id="12d36e77-fe45-4676-b8be-67638bc3577a"  >
</g>
<g transform="matrix(0 0 0 0 0 0)"  >
<g style=""   >
</g>
</g>
<g transform="matrix(0 0 0 0 0 0)"  >
<g style=""   >
</g>
</g>
<g transform="matrix(1 0 0 1 472.38 519.28)"  >
<path style="stroke: none; stroke-width: 1; stroke-dasharray: none; stroke-linecap: butt; stroke-dashoffset: 0; stroke-linejoin: miter; stroke-miterlimit: 4; fill: rgb(255,125,0); fill-rule: evenodd; opacity: 1;" vector-effect="non-scaling-stroke"  transform=" translate(-96.49, -255.99)" d="M 96.49 0 C 120.28 0 139.57 19.29 139.57 43.08 C 139.57 66.87 120.28 86.16 96.49 86.16 C 72.69 86.16 53.41 66.87 53.41 43.08 C 53.41 19.289999999999992 72.69 0 96.49 0 z M 149.14 162.22 L 149.14 488.16999999999996 C 149.14 501.28 138.42 511.98999999999995 125.32 511.98999999999995 C 112.22 511.98999999999995 101.5 501.28 101.5 488.16999999999996 L 101.5 296.51 L 92.11 296.51 L 92.11 488.16999999999996 C 92.11 501.27 81.39 511.98999999999995 68.28999999999999 511.98999999999995 C 55.18999999999998 511.98999999999995 44.46999999999999 501.28 44.46999999999999 488.16999999999996 L 44.46999999999999 162.22 L 36.13999999999999 162.22 L 36.13999999999999 281.98 C 36.13999999999999 291.92 28.00999999999999 300.05 18.079999999999995 300.05 L 18.069999999999993 300.05 C 8.13 300.05 0 291.92 0 281.98 L 0 153.08 C -0.05 132.13000000000002 7.05 117.44000000000001 19.89 107.76000000000002 C 41.97 91.12000000000002 150.97000000000003 91.11000000000001 173.06 107.74000000000002 C 185.91 117.41000000000003 193.02 132.12000000000003 192.98000000000002 153.08000000000004 L 192.98000000000002 281.98 C 192.98000000000002 291.92 184.85000000000002 300.05 174.91000000000003 300.05 L 174.90000000000003 300.05 C 164.97000000000003 300.05 156.84000000000003 291.92 156.84000000000003 281.98 L 156.84000000000003 162.22 L 149.14000000000004 162.22 z" stroke-linecap="round" />
</g>
<g transform="matrix(1 0 0 1 735.74 516.34)"  >
<path style="stroke: none; stroke-width: 1; stroke-dasharray: none; stroke-linecap: butt; stroke-dashoffset: 0; stroke-linejoin: miter; stroke-miterlimit: 4; fill: rgb(0,21,36); fill-rule: evenodd; opacity: 1;" vector-effect="non-scaling-stroke"  transform=" translate(-353.93, -256)" d="M 354 0 C 377.79 0 397.08 19.29 397.08 43.08 C 397.08 66.87 377.79 86.16 354 86.16 C 330.21 86.16 310.92 66.87 310.92 43.08 C 310.92 19.289999999999992 330.21 0 354 0 z M 449.26 148.08 C 449.57 148.8 449.84 149.56 450.06 150.34 L 487.31 282.85 C 490.07 292.69 484.32 302.92 474.48 305.68 C 464.64000000000004 308.44 454.41 302.69 451.65000000000003 292.85 L 414.89000000000004 162.08 L 414.34000000000003 162.22 L 406.65000000000003 162.22 L 406.65000000000003 170.52 L 455.67 365.5 L 406.65000000000003 365.5 L 406.65000000000003 488.17 C 406.65000000000003 501.28000000000003 395.93 511.99 382.83000000000004 511.99 C 369.7300000000001 511.99 359 501.28 359 488.17 L 359 365.5 L 349.62 365.5 L 349.62 488.17 C 349.62 501.27000000000004 338.9 511.99 325.8 511.99 C 312.70000000000005 511.99 301.98 501.28000000000003 301.98 488.17 L 301.98 365.5 L 250.02 365.5 L 301.98 165.34 L 301.98 162.22 L 293.65000000000003 162.22 L 292.97 162.05 L 256.20000000000005 292.85 C 253.44000000000005 302.69 243.21000000000004 308.44 233.37000000000006 305.68 C 223.53000000000006 302.92 217.78000000000006 292.69 220.54000000000005 282.85 L 256.99000000000007 153.17000000000002 L 256.63000000000005 153.08 C 262.21000000000004 132.22000000000003 266.87000000000006 117.44000000000001 279.71000000000004 107.76000000000002 C 301.79 91.12000000000002 408.48 91.11000000000001 430.57000000000005 107.74000000000002 C 442.45000000000005 116.68000000000002 444.5400000000001 128.43000000000004 449.26000000000005 148.08000000000004 z" stroke-linecap="round" />
</g>
<g transform="matrix(0 0 0 0 0 0)"  >
<g style=""   >
</g>
</g>
<g transform="matrix(0 0 0 0 0 0)"  >
<g style=""   >
</g>
</g>
<g transform="matrix(NaN NaN NaN NaN 0 0)"  >
<g style=""   >
</g>
</g>
<g transform="matrix(NaN NaN NaN NaN 0 0)"  >
<g style=""   >
</g>
</g>
</svg>